<?xml version="1.0" encoding="UTF-8"?>
<svg version="1.1" xmlns="http://www.w3.org/2000/svg" width="249" height="270">
<path d="M0 0 C1.36680908 -0.02767456 1.36680908 -0.02767456 2.76123047 -0.0559082 C10.70063251 0.01734957 17.33995824 2.00553113 23.0625 7.6875 C26.14681239 11.71686633 26.90879366 15.48296502 26.5625 20.5 C25.32925404 27.84862028 21.38995603 33.01194473 16.5625 38.5 C16.08425781 39.07234375 15.60601562 39.6446875 15.11328125 40.234375 C6.16776277 50.09557647 -6.9145835 57.10565429 -18.4375 63.5 C-17.46876953 63.39171875 -17.46876953 63.39171875 -16.48046875 63.28125 C4.22690011 61.24167331 29.19667454 60.1727386 46.5625 73.5 C52.10303577 78.5480437 56.18795883 83.24385029 56.86328125 90.91796875 C56.93366882 113.55930478 44.98464779 129.30767241 29.5625 144.9375 C16.25943466 158.1561303 1.47169632 168.66710457 -14.4375 178.5 C-15.11216309 178.9237793 -15.78682617 179.34755859 -16.48193359 179.78417969 C-51.99734546 202.01441824 -101.54030316 222.18972776 -144.0234375 212.546875 C-155.87175366 208.91375288 -165.4675123 201.55385355 -171.4453125 190.6640625 C-176.42977104 179.19496858 -174.53234478 166.88580695 -170.4375 155.5 C-164.25198936 140.5474919 -152.65771824 128.13021704 -138.16796875 120.859375 C-133.90036374 119.30426867 -129.99572463 118.73240916 -125.5 118.3125 C-124.72076172 118.23064453 -123.94152344 118.14878906 -123.13867188 118.06445312 C-121.23929203 117.86635829 -119.33851238 117.68176159 -117.4375 117.5 C-117.21199463 116.87770508 -116.98648926 116.25541016 -116.75415039 115.61425781 C-106.49850615 87.44934921 -94.94407741 61.58328421 -75.4375 38.5 C-74.71433594 37.613125 -73.99117188 36.72625 -73.24609375 35.8125 C-55.127164 14.45685535 -28.06731432 0.33206002 0 0 Z M-64.24609375 46.55859375 C-67.59831311 51.05809675 -70.58161692 55.67191898 -73.4375 60.5 C-74.05044922 61.51924561 -74.05044922 61.51924561 -74.67578125 62.55908203 C-85.90871263 81.26579737 -96.37320615 101.13223383 -101.4375 122.5 C-100.21740234 123.15742188 -100.21740234 123.15742188 -98.97265625 123.828125 C-63.03106322 143.71931034 -63.03106322 143.71931034 -58.4375 157.5 C-58.25 160.875 -58.25 160.875 -58.4375 163.5 C-61.56776048 165.15719673 -63.08513645 165.5621818 -66.625 164.9375 C-70.13945792 163.14122151 -70.0276153 162.0607307 -71.4375 158.5 C-79.14444696 148.42168475 -89.25804903 137.8173427 -101.4375 133.5 C-102.4275 133.5 -103.4175 133.5 -104.4375 133.5 C-104.74042969 134.66273438 -105.04335937 135.82546875 -105.35546875 137.0234375 C-106.46863366 141.2867559 -107.59689419 145.54597628 -108.72753906 149.8046875 C-109.41068438 152.39819654 -110.07744187 154.99547485 -110.7421875 157.59375 C-111.16087095 159.18765441 -111.58011922 160.78141059 -112 162.375 C-112.18522217 163.11669434 -112.37044434 163.85838867 -112.5612793 164.62255859 C-113.75528458 169.08120542 -115.21524501 172.17783013 -118.4375 175.5 C-123.4737376 178.0766797 -128.0502418 177.51588298 -133.4375 176.5 C-134.4275 176.17 -135.4175 175.84 -136.4375 175.5 C-135.20494941 167.80981774 -132.89798003 160.86196046 -130.0625 153.625 C-126.97339724 145.64481786 -124.07545748 137.64168782 -121.4375 129.5 C-130.47004694 129.70028548 -136.92642708 132.15851628 -143.515625 138.5 C-145.26241749 140.43761856 -146.87279398 142.4137253 -148.4375 144.5 C-149.015 145.263125 -149.5925 146.02625 -150.1875 146.8125 C-154.78710378 156.70164813 -156.43958885 168.55951202 -153.74609375 179.2421875 C-152.81386429 181.4967006 -151.75346048 183.44792413 -150.4375 185.5 C-150.025 186.19480469 -149.6125 186.88960937 -149.1875 187.60546875 C-143.87133391 195.65523161 -135.41268005 199.65785965 -126.4375 202.5 C-88.35275991 209.98093109 -44.00085782 187.67316029 -13.375 167.375 C6.54869916 153.8058555 28.69020071 137.32965655 36.2265625 113.390625 C37.382043 106.88768824 37.16972014 101.03187912 33.8125 95.25 C28.61787209 87.97752092 21.68344252 86.48008469 13.296875 84.875 C-5.64154263 81.81767697 -20.58204315 83.35260038 -37.4375 92.5 C-39.64013006 93.65675881 -41.84813021 94.8033763 -44.0625 95.9375 C-45.00351563 96.43121094 -45.94453125 96.92492187 -46.9140625 97.43359375 C-49.4375 98.5 -49.4375 98.5 -53.4375 98.5 C-56.41369606 91.80355888 -57.82127177 85.68178367 -55.88671875 78.4375 C-50.74904435 66.36031279 -36.4652919 57.12465032 -26.0234375 49.80859375 C-25.50007812 49.37675781 -24.97671875 48.94492188 -24.4375 48.5 C-24.4375 47.84 -24.4375 47.18 -24.4375 46.5 C-23.86 46.26410156 -23.2825 46.02820313 -22.6875 45.78515625 C-15.82354559 41.86459896 -10.57909269 32.98883984 -8.4375 25.5 C-7.9084706 22.02178371 -7.49969562 18.78284561 -9.6796875 15.80078125 C-25.65094012 3.98205431 -55.20116248 35.19072668 -64.24609375 46.55859375 Z " fill="#3B1314" transform="translate(183.4375,27.5)"/>
<path d="M0 0 C-1.32 0.99 -2.64 1.98 -4 3 C-3.4225 2.79375 -2.845 2.5875 -2.25 2.375 C0.51967567 1.91338739 1.64561267 2.57055055 4 4 C0.99559979 6.00293347 -0.70993945 6.49271626 -4.1875 7.125 C-5.08855469 7.29257813 -5.98960938 7.46015625 -6.91796875 7.6328125 C-7.60503906 7.75398437 -8.29210937 7.87515625 -9 8 C-9 8.66 -9 9.32 -9 10 C-17.67089803 12.33447255 -26.10456358 12.19865739 -35 12 C-35 11.67 -35 11.34 -35 11 C-34.43490723 10.93006836 -33.86981445 10.86013672 -33.28759766 10.78808594 C-30.73057426 10.46089636 -28.17818813 10.10583225 -25.625 9.75 C-24.73554687 9.64042969 -23.84609375 9.53085938 -22.9296875 9.41796875 C-22.07890625 9.29550781 -21.228125 9.17304688 -20.3515625 9.046875 C-19.17327881 8.88977051 -19.17327881 8.88977051 -17.97119141 8.72949219 C-15.81383797 8.17315203 -15.81383797 8.17315203 -14.88037109 6.00488281 C-14.58984863 5.34327148 -14.29932617 4.68166016 -14 4 C-11.5625 2.875 -11.5625 2.875 -9 2 C-8.01 1.34 -7.02 0.68 -6 0 C-3 -1 -3 -1 0 0 Z " fill="#331113" transform="translate(102,228)"/>
<path d="M0 0 C0.55558594 0.32871094 1.11117187 0.65742187 1.68359375 0.99609375 C4.36039673 2.15619217 6.16296579 2.17183387 9.0625 2.0625 C12.18011416 1.95467274 13.9970523 1.99901743 17 3 C18.89470816 3.0685495 20.7916834 3.08480372 22.6875 3.0625 C23.68136719 3.05347656 24.67523438 3.04445313 25.69921875 3.03515625 C26.45847656 3.02355469 27.21773437 3.01195313 28 3 C28.495 4.485 28.495 4.485 29 6 C28.07960937 5.9278125 27.15921875 5.855625 26.2109375 5.78125 C13.24590431 4.83065693 0.82186262 4.38212343 -12 7 C-12.93714844 7.18691406 -13.87429687 7.37382813 -14.83984375 7.56640625 C-15.55269531 7.70949219 -16.26554688 7.85257812 -17 8 C-16.67 6.68 -16.34 5.36 -16 4 C-15.01 4 -14.02 4 -13 4 C-12.67 3.01 -12.34 2.02 -12 1 C-11.34 1.33 -10.68 1.66 -10 2 C-7.81560378 1.93947319 -7.81560378 1.93947319 -5.4375 1.625 C-4.22900391 1.48964844 -4.22900391 1.48964844 -2.99609375 1.3515625 C-1.00673324 1.1979788 -1.00673324 1.1979788 0 0 Z " fill="#3A1D20" transform="translate(172,107)"/>
<path d="M0 0 C0.66 0 1.32 0 2 0 C6.64486562 8.33004827 5.94999622 14.8560988 4 24 C5.32 23.67 6.64 23.34 8 23 C8 23.66 8 24.32 8 25 C8.66 25 9.32 25 10 25 C10.33 24.34 10.66 23.68 11 23 C11 23.66 11 24.32 11 25 C11.66 25.33 12.32 25.66 13 26 C14.125 28.0625 14.125 28.0625 15 30 C14.01 30 13.02 30 12 30 C11.67 28.68 11.34 27.36 11 26 C10.34 26 9.68 26 9 26 C9 26.66 9 27.32 9 28 C8.01 28.33 7.02 28.66 6 29 C5.34 29.66 4.68 30.32 4 31 C3.34 30.01 2.68 29.02 2 28 C1.01 28.99 0.02 29.98 -1 31 C-0.79503906 30.39671875 -0.59007812 29.7934375 -0.37890625 29.171875 C-0.10949219 28.37265625 0.15992188 27.5734375 0.4375 26.75 C0.70433594 25.96109375 0.97117188 25.1721875 1.24609375 24.359375 C4.01966973 15.67937557 3.70813012 8.34329278 0 0 Z " fill="#3F2021" transform="translate(216,121)"/>
<path d="M0 0 C0.66 0 1.32 0 2 0 C2.13277344 0.96421875 2.26554688 1.9284375 2.40234375 2.921875 C2.57894531 4.18515625 2.75554688 5.4484375 2.9375 6.75 C3.19853516 8.62945312 3.19853516 8.62945312 3.46484375 10.546875 C3.96498017 14.34596737 3.96498017 14.34596737 5 18 C5.99 18.33 6.98 18.66 8 19 C9.33333333 21 10.66666667 23 12 25 C12.886875 25.70125 13.77375 26.4025 14.6875 27.125 C17.13130744 29.10646549 17.67201637 29.93881949 18 33 C14.15035948 31.43162794 11.81314228 29.01898195 9 26 C7.700625 24.6078125 7.700625 24.6078125 6.375 23.1875 C1.0130823 15.99124203 0.42615893 8.81708127 0 0 Z " fill="#372122" transform="translate(9,200)"/>
<path d="M0 0 C8.07904397 0.62146492 14.75616327 5.00704374 20 11 C20.78375 11.86625 21.5675 12.7325 22.375 13.625 C22.91125 14.40875 23.4475 15.1925 24 16 C23.67 16.99 23.34 17.98 23 19 C22.67 17.68 22.34 16.36 22 15 C19.525 14.505 19.525 14.505 17 14 C17 13.34 17 12.68 17 12 C16.34 12 15.68 12 15 12 C14.67 10.68 14.34 9.36 14 8 C12.4221875 7.5978125 12.4221875 7.5978125 10.8125 7.1875 C7.40927088 6.12747781 4.86841082 5.08611696 2 3 C2 2.34 2 1.68 2 1 C1.34 0.67 0.68 0.34 0 0 Z " fill="#381E20" transform="translate(214,94)"/>
<path d="M0 0 C-0.66 1.32 -1.32 2.64 -2 4 C-1.01 4.99 -0.02 5.98 1 7 C-1.75924185 8.80411967 -2.88972103 9.0127245 -6.25 8.625 C-7.61125 8.315625 -7.61125 8.315625 -9 8 C-8.67 6.68 -8.34 5.36 -8 4 C-8.83144531 4.433125 -9.66289062 4.86625 -10.51953125 5.3125 C-12.14955078 6.1478125 -12.14955078 6.1478125 -13.8125 7 C-15.43091797 7.8353125 -15.43091797 7.8353125 -17.08203125 8.6875 C-20 10 -20 10 -23 10 C-6.20422535 -2.06807512 -6.20422535 -2.06807512 0 0 Z " fill="#432123" transform="translate(156,34)"/>
<path d="M0 0 C-2.64738916 1.4606285 -3.89448334 2 -7 2 C-6.22520264 4.99152582 -6.22520264 4.99152582 -5 8 C-4.01 8.33 -3.02 8.66 -2 9 C-2.78375 9.28875 -3.5675 9.5775 -4.375 9.875 C-7.09671632 10.84912254 -7.09671632 10.84912254 -9 13 C-9.66 12.34 -10.32 11.68 -11 11 C-10.625 7.375 -10.625 7.375 -10 4 C-10.99 4.66 -11.98 5.32 -13 6 C-13.99 5.67 -14.98 5.34 -16 5 C-5.62642369 -0.74031891 -5.62642369 -0.74031891 0 0 Z " fill="#2E0D0E" transform="translate(56,148)"/>
<path d="M0 0 C1.32 0 2.64 0 4 0 C4.33 1.32 4.66 2.64 5 4 C5.66 4 6.32 4 7 4 C8.25180279 8.21919103 7.67252421 11.96088565 7.0625 16.25 C6.91264648 17.36761719 6.91264648 17.36761719 6.75976562 18.5078125 C6.51319844 20.33945442 6.25749609 22.16986251 6 24 C5.34 24 4.68 24 4 24 C3.67 24.66 3.34 25.32 3 26 C3 23.36 3 20.72 3 18 C3.66 17.67 4.32 17.34 5 17 C5.04125 15.72125 5.0825 14.4425 5.125 13.125 C5.15980469 12.04605469 5.15980469 12.04605469 5.1953125 10.9453125 C5.18331689 8.76136355 5.18331689 8.76136355 3 7 C2.835 5.989375 2.67 4.97875 2.5 3.9375 C2.335 2.968125 2.17 1.99875 2 1 C1.34 0.67 0.68 0.34 0 0 Z " fill="#2F1114" transform="translate(232,109)"/>
<path d="M0 0 C22.87690155 -0.43483023 22.87690155 -0.43483023 32 2 C32.66 2.66 33.32 3.32 34 4 C32.35 4.66 30.7 5.32 29 6 C29 5.01 29 4.02 29 3 C28.30132812 3.09539062 27.60265625 3.19078125 26.8828125 3.2890625 C25.97273438 3.39992188 25.06265625 3.51078125 24.125 3.625 C22.76761719 3.79902344 22.76761719 3.79902344 21.3828125 3.9765625 C20.59648437 3.98429687 19.81015625 3.99203125 19 4 C18.34 3.34 17.68 2.68 17 2 C14.0906442 1.85482256 11.280054 1.81369204 8.375 1.875 C7.57320312 1.88402344 6.77140625 1.89304687 5.9453125 1.90234375 C3.96341477 1.92593777 1.98167019 1.96180935 0 2 C0 1.34 0 0.68 0 0 Z " fill="#2D0E0D" transform="translate(182,92)"/>
<path d="M0 0 C2 1 2 1 3 3 C1.576875 3.928125 1.576875 3.928125 0.125 4.875 C-2.94445109 6.81970969 -2.94445109 6.81970969 -5 9 C-5.66 8.67 -6.32 8.34 -7 8 C-7.33 9.32 -7.66 10.64 -8 12 C-9.98 12.33 -11.96 12.66 -14 13 C-9.89962427 7.75027653 -5.47035213 3.79037089 0 0 Z " fill="#341B1D" transform="translate(39,152)"/>
<path d="M0 0 C0.66 0.33 1.32 0.66 2 1 C2 2.98 2 4.96 2 7 C-0.35438733 8.42944945 -1.48032433 9.08661261 -4.25 8.625 C-4.8275 8.41875 -5.405 8.2125 -6 8 C-6 6.35 -6 4.7 -6 3 C-4.03533587 1.93224776 -2.03144641 0.93446535 0 0 Z " fill="#381517" transform="translate(142,210)"/>
<path d="M0 0 C1.53333984 0.00676758 1.53333984 0.00676758 3.09765625 0.01367188 C5.60683194 0.025397 8.1158849 0.04180824 10.625 0.0625 C10.625 0.3925 10.625 0.7225 10.625 1.0625 C1.1255349 2.67943023 -7.74274517 3.32599633 -17.375 3.0625 C-17.375 2.4025 -17.375 1.7425 -17.375 1.0625 C-11.58854356 -0.19156138 -5.88631884 -0.04936913 0 0 Z " fill="#351A21" transform="translate(72.375,238.9375)"/>
<path d="M0 0 C1.65 0.33 3.3 0.66 5 1 C1.56638098 4.63559661 -1.7973607 7.36113346 -6 10 C-6.66 9.67 -7.32 9.34 -8 9 C-7.7215625 8.1028125 -7.7215625 8.1028125 -7.4375 7.1875 C-6.77906313 4.83591238 -6.77906313 4.83591238 -8 2 C-5.03 2.495 -5.03 2.495 -2 3 C-1.34 2.01 -0.68 1.02 0 0 Z " fill="#3A1B1D" transform="translate(185,73)"/>
<path d="M0 0 C0 0.66 0 1.32 0 2 C0.66 2.33 1.32 2.66 2 3 C2.625 5.5625 2.625 5.5625 3 8 C0.36 8 -2.28 8 -5 8 C-5 6.68 -5 5.36 -5 4 C-5.66 3.34 -6.32 2.68 -7 2 C-2.25 0 -2.25 0 0 0 Z " fill="#381718" transform="translate(133,215)"/>
<path d="M0 0 C0 3 0 3 -1 6 C-0.34 6 0.32 6 1 6 C1 8 1 8 -0.75 10.1875 C-1.4925 10.785625 -2.235 11.38375 -3 12 C-5.0625 11.625 -5.0625 11.625 -7 11 C-7.99 11.66 -8.98 12.32 -10 13 C-8.56501627 9.79111679 -6.78256013 7.42193016 -4.4375 4.8125 C-3.81746094 4.11769531 -3.19742188 3.42289062 -2.55859375 2.70703125 C-1.72141231 1.79011824 -0.8779528 0.8779528 0 0 Z M-3 5 C-3.66 6.32 -4.32 7.64 -5 9 C-3.68 8.01 -2.36 7.02 -1 6 C-1.66 5.67 -2.32 5.34 -3 5 Z " fill="#381B1C" transform="translate(113,61)"/>
<path d="M0 0 C0.33 0 0.66 0 1 0 C2.12411206 3.93439221 2.23762639 5.52474722 0.375 9.25 C-2.10651959 12.12333847 -3.36123004 13.11249513 -7 14 C-9.8125 14.125 -9.8125 14.125 -12 14 C-11.67 13.34 -11.34 12.68 -11 12 C-10.030625 11.855625 -9.06125 11.71125 -8.0625 11.5625 C-7.051875 11.376875 -6.04125 11.19125 -5 11 C-3.0549 8.08235 -2.54723683 6.37462715 -2 3 C-1.34 3 -0.68 3 0 3 C0 2.01 0 1.02 0 0 Z " fill="#2D1213" transform="translate(69,190)"/>
<path d="M0 0 C0.0825 0.598125 0.165 1.19625 0.25 1.8125 C1.22061134 4.64344975 2.52046488 5.39559492 5 7 C5.99 7.66 6.98 8.32 8 9 C7.67 9.66 7.34 10.32 7 11 C6.4225 10.773125 5.845 10.54625 5.25 10.3125 C2.87827523 9.73494807 2.87827523 9.73494807 0.75 11.4375 C-0.11625 12.2109375 -0.11625 12.2109375 -1 13 C-2.0070238 7.96488101 -1.97387813 4.76052962 0 0 Z " fill="#3A1B1F" transform="translate(82,145)"/>
<path d="M0 0 C-0.78375 0.28875 -1.5675 0.5775 -2.375 0.875 C-5.09671632 1.84912254 -5.09671632 1.84912254 -7 4 C-10.01305957 3.61121812 -11.39685311 2.73543126 -14 1 C-12.41913952 0.63495397 -10.83516093 0.28339494 -9.25 -0.0625 C-8.36828125 -0.25972656 -7.4865625 -0.45695313 -6.578125 -0.66015625 C-4.01320972 -0.99825872 -2.42908361 -0.81158635 0 0 Z M-13 3 C-12.34 3.66 -11.68 4.32 -11 5 C-11.66 6.32 -12.32 7.64 -13 9 C-13.99 9 -14.98 9 -16 9 C-14.125 4.125 -14.125 4.125 -13 3 Z " fill="#381A1B" transform="translate(99,228)"/>
<path d="M0 0 C0.33 0.99 0.66 1.98 1 3 C1.99 3 2.98 3 4 3 C4.66 2.34 5.32 1.68 6 1 C6 2.98 6 4.96 6 7 C5.01 7.495 5.01 7.495 4 8 C4 7.34 4 6.68 4 6 C2.576875 6.2784375 2.576875 6.2784375 1.125 6.5625 C-2 7 -2 7 -4 6 C-3.6875 4.125 -3.6875 4.125 -3 2 C-2.01 1.34 -1.02 0.68 0 0 Z " fill="#3A1A1B" transform="translate(120,184)"/>
<path d="M0 0 C3.29673633 0.59676022 5.1723181 1.68171774 7.6875 3.875 C8.28949219 4.38804688 8.89148438 4.90109375 9.51171875 5.4296875 C11 7 11 7 12 10 C11.34 10 10.68 10 10 10 C9.236875 9.154375 8.47375 8.30875 7.6875 7.4375 C6.800625 6.633125 5.91375 5.82875 5 5 C2.33696961 5.14874817 2.33696961 5.14874817 0 6 C-0.66 5.67 -1.32 5.34 -2 5 C-2 3 -2 3 0 1 C0 0.67 0 0.34 0 0 Z " fill="#3C1C1F" transform="translate(197,30)"/>
<path d="M0 0 C2.1875 0.3125 2.1875 0.3125 4 1 C3.01 1.66 2.02 2.32 1 3 C1 3.99 1 4.98 1 6 C-2.38023517 6 -4.83468937 5.12544378 -8 4 C-8.33 5.98 -8.66 7.96 -9 10 C-9.33 10 -9.66 10 -10 10 C-9.67 7.69 -9.34 5.38 -9 3 C-7.6078125 3.0928125 -7.6078125 3.0928125 -6.1875 3.1875 C-2.53514782 2.97265575 -2.36382606 2.4712727 0 0 Z " fill="#3D1F23" transform="translate(87,157)"/>
<path d="M0 0 C-0.99 0.33 -1.98 0.66 -3 1 C-3 1.66 -3 2.32 -3 3 C-7.85729645 3.97299156 -12.4500625 4.12038805 -17.375 4.0625 C-18.11105469 4.05798828 -18.84710938 4.05347656 -19.60546875 4.04882812 C-21.40368158 4.03715142 -23.20185197 4.01922011 -25 4 C-25 3.67 -25 3.34 -25 3 C-21.95919579 2.49420286 -18.91753354 1.99519241 -15.875 1.5 C-14.59109375 1.28537109 -14.59109375 1.28537109 -13.28125 1.06640625 C-8.80328495 0.34304266 -4.55436565 -0.17918816 0 0 Z " fill="#260A0D" transform="translate(92,236)"/>
<path d="M0 0 C0.99 0.99 1.98 1.98 3 3 C-2.86516854 7.88764045 -2.86516854 7.88764045 -6 9 C-8.25 8.625 -8.25 8.625 -10 8 C-8.66666667 7 -7.33333333 6 -6 5 C-5.29875 4.443125 -4.5975 3.88625 -3.875 3.3125 C-2 2 -2 2 0 2 C0 1.34 0 0.68 0 0 Z " fill="#321517" transform="translate(174,80)"/>
<path d="M0 0 C0.33 1.32 0.66 2.64 1 4 C0.01 4.66 -0.98 5.32 -2 6 C-2.72382467 8.05925139 -2.72382467 8.05925139 -3 10 C-3.598125 9.835 -4.19625 9.67 -4.8125 9.5 C-7.11344336 8.8885876 -7.11344336 8.8885876 -10 9 C-8.71034824 7.62437146 -7.37310707 6.29233607 -6 5 C-5.34 5 -4.68 5 -4 5 C-4 4.34 -4 3.68 -4 3 C-2 1.375 -2 1.375 0 0 Z " fill="#3F1E22" transform="translate(163,71)"/>
<path d="M0 0 C2.125 0.375 2.125 0.375 4 1 C4 1.66 4 2.32 4 3 C10.93 3.33 17.86 3.66 25 4 C25 4.33 25 4.66 25 5 C21.99943916 5.08166849 19.0011461 5.14081551 16 5.1875 C14.74123047 5.22520508 14.74123047 5.22520508 13.45703125 5.26367188 C7.59597871 5.33182365 3.36833894 4.36728835 -2 2 C-1.34 1.34 -0.68 0.68 0 0 Z " fill="#210709" transform="translate(53,228)"/>
<path d="M0 0 C0.66 1.32 1.32 2.64 2 4 C1.01 4.495 1.01 4.495 0 5 C-0.33 5.99 -0.66 6.98 -1 8 C-3.31 8.33 -5.62 8.66 -8 9 C-7.8125 7.1875 -7.8125 7.1875 -7 5 C-2.82142857 2 -2.82142857 2 0 2 C0 1.34 0 0.68 0 0 Z " fill="#361110" transform="translate(210,167)"/>
<path d="M0 0 C0.99 0.33 1.98 0.66 3 1 C1.91072362 4.26782914 1.31652071 4.81937333 -1.375 6.75 C-1.98085937 7.19859375 -2.58671875 7.6471875 -3.2109375 8.109375 C-5 9 -5 9 -8 8 C-7.01 7.67 -6.02 7.34 -5 7 C-4.7834375 6.071875 -4.7834375 6.071875 -4.5625 5.125 C-4 3 -4 3 -2.125 1.1875 C-1.42375 0.795625 -0.7225 0.40375 0 0 Z " fill="#2D1213" transform="translate(201,178)"/>
<path d="M0 0 C4.81033104 2.54664585 8.32442148 4.99027798 12 9 C11.67 9.99 11.34 10.98 11 12 C10.67 11.34 10.34 10.68 10 10 C9.34 10 8.68 10 8 10 C7.360625 9.195625 6.72125 8.39125 6.0625 7.5625 C4.18964068 4.76279268 4.18964068 4.76279268 1 4 C0.3125 1.9375 0.3125 1.9375 0 0 Z " fill="#2B1011" transform="translate(34,217)"/>
<path d="M0 0 C2.609375 -0.140625 2.609375 -0.140625 5 0 C4.07544441 1.508013 3.1349253 3.00624917 2.1875 4.5 C1.66542969 5.3353125 1.14335938 6.170625 0.60546875 7.03125 C-0.18923828 8.00578125 -0.18923828 8.00578125 -1 9 C-1.99 9 -2.98 9 -4 9 C-3.35177251 5.49957156 -2.19256847 2.8190166 0 0 Z " fill="#341B1D" transform="translate(36,165)"/>
<path d="M0 0 C0.66 0.99 1.32 1.98 2 3 C1 5 1 5 -2.0625 6.125 C-3.5165625 6.558125 -3.5165625 6.558125 -5 7 C-4.01 7.66 -3.02 8.32 -2 9 C-2.66 9 -3.32 9 -4 9 C-4 9.66 -4 10.32 -4 11 C-5.32 10.34 -6.64 9.68 -8 9 C-5.89851796 5.01824456 -3.63094642 2.64960955 0 0 Z " fill="#3B1F20" transform="translate(122,52)"/>
<path d="M0 0 C0.99 0.66 1.98 1.32 3 2 C3 2.66 3 3.32 3 4 C-0.3 5.32 -3.6 6.64 -7 8 C-4.9957983 3.9915966 -3.50944037 2.58590343 0 0 Z " fill="#32100E" transform="translate(197,175)"/>
<path d="M0 0 C0.33 0.66 0.66 1.32 1 2 C-0.21484375 4.6015625 -0.21484375 4.6015625 -1.9375 7.625 C-2.50339844 8.62789062 -3.06929688 9.63078125 -3.65234375 10.6640625 C-4.09707031 11.43492188 -4.54179688 12.20578125 -5 13 C-5.99 12.67 -6.98 12.34 -8 12 C-6.49087042 7.01987239 -3.44338151 3.75740058 0 0 Z " fill="#391F20" transform="translate(104,96)"/>
<path d="M0 0 C2.09749995 2.35968744 2.96905704 3.54616994 3.1875 6.75 C3.125625 7.4925 3.06375 8.235 3 9 C1.35 8.67 -0.3 8.34 -2 8 C-1.125 1.125 -1.125 1.125 0 0 Z " fill="#2F1011" transform="translate(50,194)"/>
<path d="M0 0 C0.33 0.66 0.66 1.32 1 2 C1.66 2.33 2.32 2.66 3 3 C2.01 4.32 1.02 5.64 0 7 C-1.98 6.34 -3.96 5.68 -6 5 C-5.67 4.01 -5.34 3.02 -5 2 C-4.01 2 -3.02 2 -2 2 C-1.34 1.34 -0.68 0.68 0 0 Z " fill="#310C0E" transform="translate(85,154)"/>
<path d="M0 0 C0.66 0.66 1.32 1.32 2 2 C0.515 7.445 0.515 7.445 -1 13 C-1.33 13 -1.66 13 -2 13 C-2.33 9.7 -2.66 6.4 -3 3 C-2.34 3 -1.68 3 -1 3 C-0.67 2.01 -0.34 1.02 0 0 Z " fill="#371D21" transform="translate(31,175)"/>
<path d="M0 0 C0.99 0 1.98 0 3 0 C5 2 5 2 5.0625 5.4375 C5.041875 6.613125 5.02125 7.78875 5 9 C5.33 9.99 5.66 10.98 6 12 C5.34 12.66 4.68 13.32 4 14 C3.5196682 12.41701974 3.04078388 10.83360022 2.5625 9.25 C2.29566406 8.36828125 2.02882812 7.4865625 1.75390625 6.578125 C1.11531506 4.39434165 0.53224167 2.21164502 0 0 Z " fill="#310D0E" transform="translate(218,121)"/>
<path d="M0 0 C1.38277746 3.84104849 0.84362303 7.06309254 0 11 C-1.5625 13.4375 -1.5625 13.4375 -3 15 C-4.125 10.25 -4.125 10.25 -3 8 C-2.34 8 -1.68 8 -1 8 C-1.020625 6.865625 -1.04125 5.73125 -1.0625 4.5625 C-1 1 -1 1 0 0 Z " fill="#2F1112" transform="translate(73,174)"/>
<path d="M0 0 C0.6875 1.6875 0.6875 1.6875 1 4 C-0.1875 6.6875 -0.1875 6.6875 -2 9 C-4.1875 9.8125 -4.1875 9.8125 -6 10 C-4.6302836 6.00499382 -2.74277578 3.19990508 0 0 Z " fill="#361A1D" transform="translate(24,165)"/>
<path d="M0 0 C1.65 0.33 3.3 0.66 5 1 C5 1.66 5 2.32 5 3 C3.54735962 3.8638129 2.0876837 4.71580454 0.625 5.5625 C-0.59316406 6.27599609 -0.59316406 6.27599609 -1.8359375 7.00390625 C-2.55007812 7.33261719 -3.26421875 7.66132812 -4 8 C-4.66 7.67 -5.32 7.34 -6 7 C-4.7934375 6.6596875 -4.7934375 6.6596875 -3.5625 6.3125 C-2.716875 5.879375 -1.87125 5.44625 -1 5 C-0.10613836 2.45224694 -0.10613836 2.45224694 0 0 Z " fill="#3C2125" transform="translate(145,116)"/>
<path d="M0 0 C0.66 0.33 1.32 0.66 2 1 C2.33 2.32 2.66 3.64 3 5 C0.36 5.66 -2.28 6.32 -5 7 C-4.67 5.68 -4.34 4.36 -4 3 C-3.01 3 -2.02 3 -1 3 C-0.67 2.01 -0.34 1.02 0 0 Z " fill="#39191C" transform="translate(160,108)"/>
<path d="M0 0 C2 3 2 3 2 5 C3.32 5 4.64 5 6 5 C6 5.66 6 6.32 6 7 C2.7 6.01 -0.6 5.02 -4 4 C-4 3.34 -4 2.68 -4 2 C-2.68 1.34 -1.36 0.68 0 0 Z " fill="#34191B" transform="translate(206,110)"/>
<path d="M0 0 C2.31 0 4.62 0 7 0 C6.401875 0.268125 5.80375 0.53625 5.1875 0.8125 C2.98226124 1.8560011 2.98226124 1.8560011 1.625 3.5 C-0.6393766 5.59019379 -3.07651684 6.1554382 -6 7 C-6 6.34 -6 5.68 -6 5 C-5.38125 4.9175 -4.7625 4.835 -4.125 4.75 C-1.81562433 4.18741541 -1.81562433 4.18741541 -0.75 1.9375 C-0.5025 1.298125 -0.255 0.65875 0 0 Z " fill="#31161A" transform="translate(157,40)"/>
<path d="M0 0 C0 3 0 3 -1.53125 4.60546875 C-2.1809375 5.12753906 -2.830625 5.64960938 -3.5 6.1875 C-4.1496875 6.71730469 -4.799375 7.24710938 -5.46875 7.79296875 C-5.9740625 8.19128906 -6.479375 8.58960938 -7 9 C-7.33 7.68 -7.66 6.36 -8 5 C-7.236875 4.731875 -6.47375 4.46375 -5.6875 4.1875 C-3.12619116 3.05575888 -1.80307062 2.08776599 0 0 Z " fill="#3A2325" transform="translate(223,159)"/>
<path d="M0 0 C1.21386936 3.64160808 0.6674695 4.33165469 -0.9375 7.6875 C-1.31777344 8.49574219 -1.69804688 9.30398437 -2.08984375 10.13671875 C-2.39019531 10.75160156 -2.69054687 11.36648437 -3 12 C-3.33 12 -3.66 12 -4 12 C-4.33 9.69 -4.66 7.38 -5 5 C-4.01 4.67 -3.02 4.34 -2 4 C-0.79117904 1.99983534 -0.79117904 1.99983534 0 0 Z " fill="#3D2526" transform="translate(89,127)"/>
<path d="M0 0 C0.33 0.99 0.66 1.98 1 3 C0.00390625 4.82421875 0.00390625 4.82421875 -1.4375 6.6875 C-1.91058594 7.31011719 -2.38367188 7.93273437 -2.87109375 8.57421875 C-3.24363281 9.04472656 -3.61617188 9.51523438 -4 10 C-4.66 9.34 -5.32 8.68 -6 8 C-5.01 7.67 -4.02 7.34 -3 7 C-2.67 5.35 -2.34 3.7 -2 2 C-1.34 2 -0.68 2 0 2 C0 1.34 0 0.68 0 0 Z " fill="#300F12" transform="translate(105,91)"/>
<path d="M0 0 C0.33 0.66 0.66 1.32 1 2 C0.67 2.66 0.34 3.32 0 4 C-0.66 4 -1.32 4 -2 4 C-2 4.66 -2 5.32 -2 6 C-3.98 6.33 -5.96 6.66 -8 7 C-5.42215154 4.35247996 -3.08351902 2.05567935 0 0 Z " fill="#3E2728" transform="translate(131,45)"/>
<path d="M0 0 C1.125 1.75 1.125 1.75 2 4 C1.125 5.9375 1.125 5.9375 0 8 C-0.16750414 10.66709069 -0.16750414 10.66709069 0 13 C-0.66 13 -1.32 13 -2 13 C-2.19294408 8.17639811 -1.75747614 4.50353262 0 0 Z " fill="#382729" transform="translate(49,190)"/>
<path d="M0 0 C2.31 1.65 4.62 3.3 7 5 C3 6 3 6 -1 6 C-1 5.34 -1 4.68 -1 4 C-0.34 4 0.32 4 1 4 C0.67 2.68 0.34 1.36 0 0 Z " fill="#3A1B1D" transform="translate(107,165)"/>
<path d="M0 0 C0.94875 0.350625 1.8975 0.70125 2.875 1.0625 C-0.125 3.0625 -0.125 3.0625 -2.25 2.8125 C-4.125 2.0625 -4.125 2.0625 -5.125 0.0625 C-3.125 -0.9375 -3.125 -0.9375 0 0 Z " fill="#2E0B0D" transform="translate(103.125,230.9375)"/>
<path d="M0 0 C0.66 1.32 1.32 2.64 2 4 C0.02 4.66 -1.96 5.32 -4 6 C-3.6875 4.125 -3.6875 4.125 -3 2 C-2.01 1.34 -1.02 0.68 0 0 Z " fill="#2D1312" transform="translate(214,155)"/>
<path d="M0 0 C0.66 0.33 1.32 0.66 2 1 C2.66 1 3.32 1 4 1 C2.95125002 3.62187494 2.35068687 4.79371361 -0.125 6.25 C-0.74375 6.4975 -1.3625 6.745 -2 7 C-1.34 4.69 -0.68 2.38 0 0 Z " fill="#3E1C1E" transform="translate(84,101)"/>
<path d="M0 0 C1.65 0.33 3.3 0.66 5 1 C3.35 2.65 1.7 4.3 0 6 C-0.66 5.67 -1.32 5.34 -2 5 C-1.34 3.35 -0.68 1.7 0 0 Z " fill="#3E2425" transform="translate(185,73)"/>
<path d="M0 0 C1.65 0.33 3.3 0.66 5 1 C3.35 2.98 1.7 4.96 0 7 C-0.66 6.67 -1.32 6.34 -2 6 C-1.01 4.68 -0.02 3.36 1 2 C0.67 1.34 0.34 0.68 0 0 Z " fill="#3D2123" transform="translate(194,65)"/>
<path d="M0 0 C0.99 1.32 1.98 2.64 3 4 C0 6 0 6 -3 6 C-1.125 1.125 -1.125 1.125 0 0 Z " fill="#3B2023" transform="translate(172,59)"/>
<path d="M0 0 C0.99 0.66 1.98 1.32 3 2 C1.8125 3.5 1.8125 3.5 0 5 C-2.6875 5.1875 -2.6875 5.1875 -5 5 C-4 3 -4 3 -1 2 C-0.67 1.34 -0.34 0.68 0 0 Z " fill="#260E11" transform="translate(144,215)"/>
<path d="M0 0 C0.66 0 1.32 0 2 0 C2 2.64 2 5.28 2 8 C0.4375 6.8125 0.4375 6.8125 -1 5 C-0.6875 2.3125 -0.6875 2.3125 0 0 Z " fill="#361A1C" transform="translate(51,185)"/>
<path d="M0 0 C0.99 0.33 1.98 0.66 3 1 C3 1.66 3 2.32 3 3 C2.34 3 1.68 3 1 3 C1 3.66 1 4.32 1 5 C-1.475 4.01 -1.475 4.01 -4 3 C-2.1875 1.4375 -2.1875 1.4375 0 0 Z " fill="#2F0F10" transform="translate(201,109)"/>
</svg>
